<?xml version="1.0" encoding="UTF-8" standalone="no"?>
<!-- Created with Inkscape (http://www.inkscape.org/) -->

<svg
   xmlns:dc="http://purl.org/dc/elements/1.1/"
   xmlns:cc="http://creativecommons.org/ns#"
   xmlns:rdf="http://www.w3.org/1999/02/22-rdf-syntax-ns#"
   xmlns:svg="http://www.w3.org/2000/svg"
   xmlns="http://www.w3.org/2000/svg"
   version="1.1"
   width="512"
   height="406.85641"
   id="svg3216">
  <defs
     id="defs3218" />
  <metadata
     id="metadata3221">
    <rdf:RDF>
      <cc:Work
         rdf:about="">
        <dc:format>image/svg+xml</dc:format>
        <dc:type
           rdf:resource="http://purl.org/dc/dcmitype/StillImage" />
        <dc:title></dc:title>
      </cc:Work>
    </rdf:RDF>
  </metadata>
  <g
     transform="translate(-126.85714,-242.19097)"
     id="layer1">
    <path
       d="m 513.25605,331.53332 c 8.41566,8.42714 15.35949,18.08591 21.79037,28.0978 5.10735,7.95249 9.84538,16.7404 16.87051,23.19904 4.96672,4.5667 12.45793,8.90659 17.16151,14.54222 -4.30257,-15.10492 -9.55162,-29.97826 -17.24572,-43.72427 -10.97462,-19.60655 -23.55787,-35.61487 -39.99491,-50.93798 -49.43269,-46.07941 -122.43664,-61.61689 -186.70051,-41.64191 -47.77899,14.85132 -90.4114,49.53984 -113.43144,94.17134 -4.95332,9.60422 -8.94008,19.08212 -12.57468,29.2634 4.9935,-5.55813 13.71057,-11.26745 19.39884,-15.11641 8.80136,-5.95527 12.76033,-15.79874 19.38453,-22.60859 8.39369,-8.6281 2.32071,-0.76845 -0.31098,3.19918 -11.13255,16.78538 -19.42663,35.57849 -24.18955,55.74487 l 12.2072,-5.25189 c 12.34217,-38.61881 34.65888,-70.20958 68.91958,-92.20953 57.03015,-36.62161 130.98725,-33.72866 185.11479,6.74287 35.79194,26.76377 60.86949,69.1703 64.86682,113.95395 0.73879,8.26733 0.85936,16.149 0.60573,24.45077 -38.5537,-2.20009 -77.60602,-4.54564 -116.15689,-6.82325 l -28.84903,7.5563 154.77956,6.90554 c 3.97529,-44.57695 -9.9583,-88.79886 -37.93939,-123.65771 -1.7809,-2.22018 -10.86361,-13.02445 -3.70634,-5.85574 z m -359.13909,72.35512 3.79423,4.32649 -10.30435,18.0151 -10.9129,4.9179 c 4.68627,-8.77643 10.23789,-19.13954 17.42302,-27.25949 z m 299.76632,5.78206 -61.06663,46.60383 c 73.06039,3.02596 146.10745,6.56199 219.15733,9.84251 -2.89872,4.53894 -5.77248,9.09894 -8.63767,13.65989 l -293.281,0.20096 c 19.68218,-15.28771 39.50882,-30.39838 59.25891,-45.599 l -218.55563,-8.83864 c 3.15427,-5.35046 6.29247,-10.71144 9.43778,-16.06477 z m -293.62038,-2.57618 -3.90409,-4.21453 34.30534,-0.28709 19.76984,4.40783 z m 29.93394,-6.99646 c 3.76965,-14.04173 8.15244,-27.37912 14.51925,-40.56818 31.13522,-64.49068 97.13701,-108.50206 168.86724,-111.19691 51.4203,-1.93214 103.27406,15.91931 141.13399,51.20976 35.90678,33.46932 58.66653,76.86728 63.72702,125.90757 0.92636,8.9841 1.64699,18.39118 0.81826,27.39633 17.78062,1.50342 35.7708,2.16565 53.59454,3.21258 -6.48164,10.32865 -13.87809,21.54825 -22.66888,31.70848 -12.23881,0.4603 -23.34549,0.87946 -35.58232,1.29383 -3.60497,14.19676 -7.89123,27.64611 -14.18914,40.99594 -31.84437,67.50612 -103.09131,114.09558 -178.22833,112.97018 -26.30064,-0.39328 -52.45864,-4.92935 -76.66441,-15.55853 -34.80051,-15.28101 -65.82088,-39.69253 -86.83901,-71.6192 -14.03594,-21.32049 -24.98292,-45.36167 -29.7502,-70.55696 -3.0219,-15.97099 -4.34383,-32.15731 -3.97811,-48.40104 -18.5355,-1.29288 -33.56494,-2.30153 -52.0996,-3.60875 5.93701,-11.08755 11.80742,-21.90425 20.79963,-32.5889 z m 350.91008,50.57432 c 0.43355,-31.4166 -6.47965,-60.26659 -22.98751,-87.27822 -38.67527,-63.28777 -116.32439,-91.74923 -186.623,-68.08701 -48.89961,16.46001 -85.63222,55.04054 -101.05394,104.00906 l 266.93825,-5.18012 c -21.18265,16.72317 -42.34907,33.47027 -63.49443,50.2413 z m -324.87173,-43.66782 242.02431,0.16077 31.51517,-10.22721 -227.70028,4.42411 z m 343.51556,54.25965 54.54578,2.45465 13.91062,-5.53038 -31.53431,-1.7015 z M 382.19038,624.70516 c -66.71858,0 -121.3514,-38.19295 -164.56658,-85.0877 -7.41756,-8.05009 -15.12123,-20.14436 -4.63942,-1.25172 42.98641,77.47207 132.74035,116.86316 218.81853,93.88997 60.51449,-16.15087 108.70785,-60.65128 130.96714,-118.9867 5.47582,-14.34987 1.81535,-6.74477 -1.21827,-0.47274 -31.96204,66.06396 -106.05029,111.90889 -179.3614,111.90889 z M 209.255,432.03601 c -0.52917,6.45481 -0.58085,12.86847 -0.35883,19.33764 1.93309,56.3449 31.62427,108.92026 79.16206,139.83349 l 0.14355,0 c 56.96216,36.88862 130.75184,37.05988 187.97715,0 l 0.15312,0 c 30.62327,-19.91948 54.62617,-49.23934 67.86499,-83.81875 3.01348,-7.86923 5.53324,-15.68868 7.5027,-23.87466 l -12.42348,6.43949 c -11.88566,38.48197 -34.65788,70.59621 -68.68607,92.58084 -57.14976,36.92211 -131.41784,34.35167 -185.76845,-6.3639 -42.94722,-32.17453 -67.34056,-84.00153 -65.55293,-137.69369 z m 316.05797,83.21107 c -18.66871,36.22446 -47.65937,63.87727 -85.92407,78.62908 -68.93205,26.57427 -147.29797,1.85175 -188.79441,-59.5479 -19.31179,-28.57439 -27.68626,-60.43311 -27.0738,-94.7905 36.06273,2.49387 70.44592,4.86527 106.51537,7.2778 -19.84295,16.46767 -40.61318,32.08458 -60.71827,48.26706 88.56438,-1.28809 177.14218,-2.27761 265.68078,-4.81264 -2.74752,8.62141 -5.84047,16.71553 -9.6856,24.9771 z m -30.5601,-219.93439 -3.58002,-2.68911 c -0.5771,-0.27465 -1.01823,-0.21245 -1.49863,0.21053 l -10.89139,14.44175 c -0.14829,0.24499 -0.1215,0.43447 0.088,0.6297 l 13.06465,9.79657 c 0.17417,0.0785 0.34168,0.0967 0.52733,0.0555 l 3.05751,-0.91487 -10.4789,-7.89698 9.80044,-13.00532 c 0.14638,-0.24498 0.11958,-0.43351 -0.089,-0.62778 z m -76.20027,-16.66768 1.51777,-5.66435 9.41956,2.52068 c 0.14447,10e-4 0.26605,-0.0526 0.37988,-0.13684 l 2.13215,-1.8106 -11.27602,-3.02118 1.43064,-5.33706 12.40342,3.31975 c 0.16743,0.001 0.30715,-0.0574 0.4383,-0.15599 l 2.3857,-2.02496 -19.57592,-5.24614 c -0.2603,-0.0402 -0.4105,0.0479 -0.50529,0.29475 l -4.85953,18.13758 c -0.0414,0.2603 0.0421,0.41437 0.29001,0.5072 l 17.4868,4.68153 c 0.16843,7.1e-4 0.30815,-0.0584 0.44021,-0.15695 l 2.38387,-2.024 z M 352.058,263.32669 c 1.36657,-0.23638 2.53025,-0.36078 3.58102,0.66509 0.85171,1.05938 1.18764,2.60393 1.05366,3.93988 -0.29,1.77327 -1.57809,2.40392 -3.15135,2.7092 -2.6317,0.51198 -5.26913,1.02587 -7.90365,1.53786 l -1.42498,-7.32757 z m -13.56036,-0.31868 c -0.25356,0.0775 -0.35309,0.22202 -0.33011,0.48615 l 3.5781,18.40362 c 0.0776,0.25455 0.223,0.35313 0.48805,0.32824 l 4.1705,-0.81726 c 0.55122,-0.22775 0.78764,-0.57801 0.79238,-1.17516 l -1.00574,-5.20787 c 3.0843,-0.59907 6.17151,-1.20101 9.25206,-1.79817 2.7159,-0.52729 5.2394,-1.49766 6.38969,-4.31596 0.78472,-2.64987 0.0766,-6.16197 -2.17708,-7.92664 -1.99151,-1.3455 -4.37056,-1.21535 -6.64434,-0.79428 -4.84421,0.89668 -9.67503,1.87854 -14.51351,2.81733 z m -51.10929,43.55586 c 2.9638,-2.84701 4.28151,-6.4462 2.57718,-10.36501 -1.31971,-3.03172 -4.17725,-6.39166 -7.46634,-7.363 -3.93991,-0.89764 -8.02712,1.77328 -11.00431,4.06715 -3.84896,2.96569 -8.07972,6.98499 -5.90646,12.26463 1.45177,3.53029 4.36097,7.12757 8.2721,7.9477 3.34851,0.51007 6.12657,-0.92253 8.77931,-2.7494 1.66705,-1.14837 3.26812,-2.41445 4.74852,-3.80207 z m -1.66223,-4.94087 c 0.023,2.7427 -1.7982,4.13223 -3.84897,5.59544 -0.98859,0.70434 -1.99625,1.4058 -3.19921,1.6661 -4.07289,0.62395 -8.36589,-5.13323 -8.60987,-8.62045 0.0253,-2.1398 1.30531,-3.31114 2.85079,-4.54564 2.07472,-1.65653 4.34467,-3.44225 7.07305,-2.23167 2.61064,1.36656 5.47008,5.12078 5.73421,8.13622"
       id="path2997-0"
       style="fill:#231f20;fill-opacity:1;fill-rule:evenodd;stroke:none" />
  </g>
</svg>
