<?xml version="1.0" encoding="UTF-8"?>
<svg width="643px" height="173px" viewBox="0 0 643 173" version="1.1" xmlns="http://www.w3.org/2000/svg" xmlns:xlink="http://www.w3.org/1999/xlink">
    <title>Group 2</title>
    <g id="Page-1" stroke="none" stroke-width="1" fill="none" fill-rule="evenodd">
        <g id="8-copy" transform="translate(-159.000000, -421.000000)">
            <g id="Group-2" transform="translate(159.000000, 421.000000)">
                <path d="M307.804081,31.6643052 C308.723716,31.6643052 309.470057,32.4123212 309.470057,33.3384351 L309.470057,167.918032 C309.470057,168.842168 308.723716,169.594143 307.804081,169.594143 L276.967747,169.594143 C276.046144,169.594143 275.299803,168.842168 275.299803,167.918032 L275.300517,158.135041 C286.388556,148.607604 293.416811,134.447594 293.416811,118.638011 C293.416811,102.828429 286.388556,88.6684177 275.300517,79.1409812 L275.299803,33.3384351 C275.299803,32.4123212 276.046144,31.6643052 276.967747,31.6643052 Z M429.893043,64.6403433 L400.724656,64.6403433 C399.803053,64.6403433 399.056712,65.3923178 399.056712,66.3164539 L399.056712,69.514323 C399.056712,70.1594364 398.36551,70.5532344 397.806246,70.2346348 C389.444851,65.4873032 379.996436,62.989959 370.303835,62.989959 C339.743194,62.989959 314.881534,87.6270014 314.881534,117.913744 C314.881534,148.200486 339.743194,172.839506 370.303835,172.839506 C379.998404,172.839506 389.446819,170.342162 397.806243,165.590875 C398.365507,165.276234 399.056709,165.668051 399.056709,166.313164 L399.056709,167.858668 C399.056709,168.784782 399.80305,169.534776 400.724653,169.534776 L429.89304,169.534776 C430.814643,169.534776 431.559016,168.784782 431.559016,167.858668 L431.559016,66.3164539 C431.559016,65.3923178 430.814643,64.6403433 429.89304,64.6403433 L429.893043,64.6403433 Z M375.303727,143.10487 C361.286676,143.10487 349.884775,131.80547 349.884775,117.915718 C349.884775,104.023989 361.286676,92.7245893 375.303727,92.7245893 C389.32275,92.7245893 399.054735,104.023989 399.054735,117.915718 C399.054735,131.80547 389.32275,143.10487 375.303727,143.10487 Z M501.97315,62.9899559 C492.278581,62.9899559 482.832135,65.4873002 474.468771,70.2346318 C473.909507,70.5532314 473.218305,70.1594334 473.218305,69.5143199 L473.218305,33.2790681 C473.218305,32.3529543 472.473932,31.6049383 471.552329,31.6049383 L442.383942,31.6049383 C441.462339,31.6049383 440.715998,32.3529543 440.715998,33.2790681 L440.715998,167.858665 C440.715998,168.784779 441.462339,169.534773 442.383942,169.534773 L471.552329,169.534773 C472.473932,169.534773 473.218305,168.784779 473.218305,167.858665 L473.218305,166.313161 C473.218305,165.668048 473.909507,165.27425 474.468771,165.590872 C482.832135,170.342159 492.278581,172.837525 501.97315,172.837525 C532.53182,172.837525 557.39348,148.198505 557.39348,117.913744 C557.39348,87.6270014 532.53182,62.989959 501.97315,62.989959 L501.97315,62.9899559 Z M496.971281,143.104873 C482.956198,143.104873 473.220273,131.805473 473.220273,117.913744 C473.220273,104.023992 482.956198,92.7245924 496.971281,92.7245924 C510.988332,92.7245924 522.390233,104.023992 522.390233,117.913744 C522.390233,131.805473 510.988332,143.104873 496.971281,143.104873 Z M621.703441,109.527254 L621.691626,109.51934 C619.482138,108.535837 617.111174,107.589933 614.665378,106.713291 C612.739461,105.921739 610.839145,105.175701 608.743874,104.358423 C598.247822,100.060298 596.319937,97.0662532 595.780364,95.188296 C595.431808,93.9673281 595.882762,92.4653597 596.959937,91.272096 C598.385668,89.6929514 600.61485,88.9528496 603.082308,89.2457229 C606.794327,89.6810756 608.525288,91.6619323 609.318891,93.6309162 C609.622153,94.3848686 610.392127,94.8360528 611.18573,94.6757641 L639.330113,88.9607608 C640.226118,88.7787043 640.822798,87.8981038 640.63966,86.9977133 C639.204085,79.885622 634.527139,75.2372344 633.030515,73.9014911 C630.854504,72.0591553 628.422491,70.4246024 625.801433,69.041365 C620.295435,66.1343914 613.960389,64.2445614 606.979433,63.4213471 C595.333346,62.0499854 584.138213,64.3553782 575.463709,69.9180069 C572.576802,71.7662791 569.999067,73.9687723 567.78564,76.4859065 C566.292955,78.3163695 558.96541,88.0306853 561.09613,99.4804788 C562.590783,107.494938 568.382319,114.458614 578.305321,120.175595 C578.596768,120.34182 578.866553,120.504089 579.140277,120.666359 L579.301756,120.761344 C581.221766,121.800256 583.279621,122.795632 585.388679,123.709873 C588.448877,125.231631 591.188091,126.543629 593.3897,127.598371 L593.533454,127.667633 C604.594677,132.967071 606.768717,134.655054 607.219672,138.294213 C607.422503,139.910956 606.898684,141.401052 605.752585,142.491413 C604.618304,143.57386 602.34777,144.751292 597.974086,144.226891 C596.126937,144.005257 592.72409,142.542866 590.719405,139.534962 C590.341311,138.967033 589.657985,138.682074 588.990412,138.828512 L560.385228,145.00855 C559.353345,145.232165 558.786203,146.352211 559.20762,147.325819 C562.309174,154.54279 566.899472,160.257794 572.923378,164.365945 C578.7799,167.674631 585.843564,169.831608 593.919418,170.785429 C596.47943,171.084239 599.031567,171.238591 601.504932,171.238591 C619.448649,171.238591 633.877274,163.287457 640.121737,149.926066 C641.720759,145.879259 642.662055,141.978887 642.923965,138.308066 C643.83966,121.748809 628.39097,112.663775 621.703429,109.527251 L621.703441,109.527254 Z" id="Combined-Shape" fill="#00D47E" fill-rule="nonzero"></path>
                <path d="M30.6450475,64.9249852 L1.65759725,64.9249852 C0.741711082,64.9249852 0,65.6753934 0,66.5976044 L0,167.928293 C0,168.852478 0.741711082,169.600909 1.65759725,169.600909 L30.6450475,169.600909 C31.5609337,169.600909 32.3006888,168.852478 32.3006888,167.928293 L32.3006888,66.5976044 C32.3006888,65.6734197 31.5609337,64.9249852 30.6450475,64.9249852 L30.6450475,64.9249852 Z M16.1474006,56.7214703 C7.24389041,56.7214703 0,49.7590116 0,41.1996003 C0,32.641471 7.24389041,25.6790123 16.1474006,25.6790123 C25.0522282,25.6790123 32.2961186,32.642753 32.2961186,41.1996003 C32.2961186,49.7590116 25.0522282,56.7214703 16.1474006,56.7214703 Z M140.297147,144.476084 L117.462583,131.174124 C116.713042,130.735727 115.744316,130.949001 115.26876,131.679661 C110.442736,139.075124 103.739926,143.16682 95.7298254,143.16682 C87.9584786,143.16682 80.99734,139.655703 76.3611478,134.142183 C72.4510131,129.890532 70.0614845,124.232855 70.0614845,118.02817 C70.0614845,111.823485 72.4510131,106.163832 76.3611478,101.912181 C80.99734,96.4026111 87.9584786,92.8895203 95.7298254,92.8895203 C103.739926,92.8895203 110.442736,96.98319 115.26876,104.376679 C115.744316,105.105365 116.713042,105.32259 117.462583,104.884193 L125.959985,99.9354536 L140.667025,91.3669846 C141.291316,91.0016535 141.502675,90.1880547 141.124971,89.5679812 C141.124971,89.5679812 141.124971,89.5679812 141.124971,89.5640309 C140.220826,88.0908611 139.248185,86.6591625 138.21292,85.2788065 C138.197263,85.2630081 138.183563,85.245236 138.171821,85.2254872 C137.15221,83.8727777 136.069975,82.5694371 134.930986,81.3174421 C134.848791,81.2246283 134.760725,81.1337882 134.676575,81.0409744 C134.179492,80.5018667 133.666752,79.9765807 133.152054,79.4532714 C133.060073,79.3604576 132.972008,79.2656701 132.878071,79.17483 C132.388815,78.6910152 131.889773,78.2210221 131.384861,77.7589298 C131.087392,77.4864124 130.787967,77.2198191 130.484628,76.9552024 C130.277184,76.7735252 130.067781,76.5957983 129.858378,76.414121 C121.897202,69.6525532 112.096422,65.2054003 101.628295,63.7460553 C101.279945,63.69866 100.929639,63.6552152 100.581289,63.6137439 C100.148785,63.564375 99.7182399,63.5130324 99.2857361,63.4715612 C98.6125191,63.4083676 97.9393021,63.357025 97.2602142,63.3175304 C97.0175421,63.301732 96.772914,63.2918576 96.5282859,63.2800096 C95.7122069,63.2444654 94.8961279,63.2187926 94.0722192,63.2187926 C63.701151,63.2187926 38.993713,87.8064866 38.993713,118.030138 C38.993713,148.251812 63.701151,172.839506 94.0722192,172.839506 C94.8961279,172.839506 95.7122069,172.81186 96.5282859,172.778289 C96.772914,172.766441 97.0175421,172.754593 97.2602142,172.740768 C97.9393021,172.703247 98.6125191,172.649928 99.2857361,172.586735 C99.7182399,172.54329 100.148785,172.493921 100.581289,172.442578 C100.929639,172.401107 101.279945,172.357662 101.628295,172.310267 C112.094463,170.852895 121.895243,166.403769 129.854463,159.644178 C130.067778,159.464474 130.279137,159.282797 130.48854,159.099146 C130.78992,158.834529 131.087389,158.571886 131.382899,158.303319 C131.889767,157.837277 132.392724,157.36531 132.880024,156.881495 C132.96809,156.796582 133.054199,156.707719 133.140309,156.620829 C133.613909,156.133064 134.386933,155.333287 134.846835,154.833673 C134.874233,154.804053 134.903587,154.772456 134.930986,154.74086 C136.069975,153.490838 137.15221,152.18355 138.173777,150.830841 C138.185519,150.813069 138.199219,150.795297 138.21292,150.777525 C138.86461,149.910607 140.03491,148.119501 140.86273,146.826035 C141.37547,146.024284 141.115185,144.951993 140.29715,144.476075 L140.297147,144.476084 Z M194.633936,32.7621276 C195.547867,32.7621276 196.289578,33.5125358 196.289578,34.4347468 L196.289578,63.1477073 C196.289578,64.0718919 197.031289,64.8203234 197.947175,64.8203234 L208.714726,64.8203234 C209.6267,64.8203234 210.37037,65.5707315 210.37037,66.4909688 L210.369388,76.3106008 C198.359957,86.3367545 190.712069,101.37636 190.712069,118.160475 C190.712069,134.923882 198.342096,149.948078 210.327312,159.974541 L208.965237,169.065743 C208.849773,169.847748 208.207869,170.438201 207.427015,170.485597 C203.871102,170.696897 194.365831,171.241929 191.473348,171.241929 C191.240462,171.241929 191.052586,171.237978 190.913636,171.230081 C173.300413,170.297995 163.988889,161.178571 163.988889,144.857208 L163.988889,94.5996513 C163.988889,93.6774403 163.245219,92.9290088 162.331289,92.9290088 L149.119415,92.9290088 C148.203529,92.9290088 147.461818,92.1805774 147.461818,91.2563927 L147.461818,66.4909688 C147.461818,65.5707315 148.203529,64.8203234 149.119415,64.8203234 L162.331289,64.8203234 C163.245219,64.8203234 163.988889,64.0718919 163.988889,63.1477073 L163.988889,34.4347468 C163.988889,33.5125358 164.7306,32.7621276 165.646486,32.7621276 Z" id="Combined-Shape" fill="#FFFFFF" fill-rule="nonzero"></path>
                <path d="M268.507121,147.85493 C260.960661,155.448381 250.913443,159.660412 240.218124,159.717752 C240.144476,159.717752 240.070828,159.717752 239.99718,159.717752 C229.314954,159.717752 219.277557,155.604018 211.70982,148.118694 C204.089712,140.580945 199.854137,130.497301 199.785399,119.723939 C199.729754,110.777265 202.542942,102.290948 207.922679,95.1824297 C213.128771,88.3016328 220.529572,83.1950985 228.763249,80.8015641 C229.244579,80.6623099 229.575177,80.2199729 229.575177,79.7170194 L229.575177,53.7408642 C229.575177,53.1174967 229.071098,52.6122496 228.447545,52.6122496 L227.072783,52.6122496 C226.329757,52.6122496 225.725844,52.0070672 225.725844,51.263122 L225.725844,46.0756564 C225.725844,45.3315473 226.329757,44.7263649 227.072783,44.7263649 L252.926487,44.7263649 C253.669513,44.7263649 254.273263,45.3315473 254.273263,46.0756564 L254.273263,51.263122 C254.273263,52.0070672 253.669513,52.6122496 252.926487,52.6122496 L251.551726,52.6122496 C250.928173,52.6122496 250.424094,53.1174967 250.424094,53.7408642 L250.424094,79.7170194 C250.424094,80.2199729 250.754691,80.6623099 251.235858,80.8015641 C259.42862,83.1836305 266.803398,88.2557608 272.002944,95.0857709 C277.374334,102.138588 280.213872,110.569202 280.213872,119.461813 C280.213872,130.177835 276.056854,140.261479 268.507121,147.85493 Z M252.679358,54.8694787 L252.926487,54.8694787 C254.913346,54.8694787 256.528691,53.2516723 256.528691,51.263122 L256.528691,46.0756564 C256.528691,44.0869422 254.913346,42.4691358 252.926487,42.4691358 L227.072783,42.4691358 C225.085925,42.4691358 223.47058,44.0869422 223.47058,46.0756564 L223.47058,51.263122 C223.47058,53.2516723 225.085925,54.8694787 227.072783,54.8694787 L227.32155,54.8694787 L227.32155,78.8798558 C218.951869,81.5011118 211.449598,86.7813043 206.125669,93.8193766 C200.44332,101.327637 197.471216,110.290694 197.531771,119.738683 C197.603783,131.114934 202.076668,141.763787 210.125571,149.724214 C218.118829,157.630577 228.717587,161.975309 239.99718,161.975309 C240.074102,161.975309 240.152659,161.975309 240.229581,161.97367 C251.52554,161.914692 262.135755,157.46511 270.1061,149.447343 C278.078081,141.4263 282.469136,130.777448 282.469136,119.461813 C282.469136,110.069525 279.470682,101.167085 273.79668,93.7161647 C268.479298,86.7321558 261.004849,81.4880055 252.679358,78.8798558 L252.679358,54.8694787 Z" id="Fill-82" stroke="#FFFFFF" stroke-width="2" fill="#FFFFFF"></path>
                <path d="M270.887675,110.534993 C268.121515,109.551543 264.757892,108.641975 258.933443,108.641975 C251.730866,108.641975 248.225304,110.016178 244.513435,111.47083 C240.766907,112.938616 236.893294,114.457299 229.258298,114.457299 C221.623137,114.457299 217.749689,112.940258 214.003161,111.47083 C213.338028,111.20978 212.65144,110.940522 211.956599,110.68604 C211.784952,110.623651 211.606703,110.592456 211.428454,110.592456 C211.167683,110.592456 210.908561,110.659771 210.675848,110.789475 C210.281389,111.012762 210.017317,111.38053 209.933144,111.825463 C209.543637,113.874453 209.358786,115.980907 209.385193,118.087361 C209.487521,126.458997 212.828038,134.285548 218.794426,140.125499 C224.732756,145.937539 232.610368,149.135802 240.986417,149.135802 C241.022562,149.135802 241.060688,149.135802 241.096998,149.135802 C249.515958,149.10625 257.42658,145.824253 263.371512,139.890719 C269.318094,133.957185 272.592593,126.074811 272.592593,117.694966 C272.592593,115.757619 272.412693,113.813706 272.057681,111.917404 C271.939013,111.278737 271.49009,110.748429 270.887675,110.534993" id="Fill-46" fill="#00D47E"></path>
                <circle id="Oval" stroke="#FFFFFF" stroke-width="3" cx="253.82716" cy="18.7654321" r="11.3395062"></circle>
                <circle id="Oval-Copy" stroke="#FFFFFF" stroke-width="3" cx="233.08642" cy="7.90123457" r="6.40123457"></circle>
            </g>
        </g>
    </g>
</svg>